<?xml version="1.0" encoding="UTF-8" standalone="no"?>
<svg
   xmlns:dc="http://purl.org/dc/elements/1.1/"
   xmlns:cc="http://creativecommons.org/ns#"
   xmlns:rdf="http://www.w3.org/1999/02/22-rdf-syntax-ns#"
   xmlns:svg="http://www.w3.org/2000/svg"
   xmlns="http://www.w3.org/2000/svg"
   version="1.1"
   id="svg2"
   viewBox="0 0 620.00001 459.99999"
   height="460"
   width="620">
  <defs
     id="defs4" />
  <metadata
     id="metadata7">
    <rdf:RDF>
      <cc:Work
         rdf:about="">
        <dc:format>image/svg+xml</dc:format>
        <dc:type
           rdf:resource="http://purl.org/dc/dcmitype/StillImage" />
        <dc:title></dc:title>
      </cc:Work>
    </rdf:RDF>
  </metadata>
  <g
     transform="translate(0,-592.36222)"
     id="layer1">
    <path
       id="path4152"
       transform="translate(0,592.36222)"
       d="M 310.70508 0.41601562 C 285.42143 53.416146 285.12405 58.624842 277.04102 119.11914 C 227.77393 128.31658 154.60221 152.01453 124.5332 187.27344 C 135.68393 209.59113 159.91735 235.25904 180.45703 251.94336 C 181.65872 260.43428 184.09949 278.11086 187.28906 298.60938 C 174.8948 287.49619 164.29168 278.04181 157.61328 284.81836 C 152.61599 289.88914 148.52968 311.93113 144.85352 323.51172 C 107.18324 259.18618 79.66361 222.90033 48.224609 201.92773 C 22.208346 245.3966 3.7551501 282.26097 2.6113281 328.17188 C 11.732392 371.53422 134.10888 422.46495 157.15625 409.96875 C 166.72063 381.96828 165.85886 359.82256 172.88281 325.61914 C 172.42003 327.04319 188.30112 336.05918 194.15625 339.4668 C 200.49675 374.02886 207.99252 405.59655 214.67969 408.11523 C 218.60531 409.59386 224.68141 410.69768 231.88672 411.54297 C 231.0244 412.90176 230.20102 414.37929 229.42773 416.00586 C 217.98756 440.06968 221.18524 459.57617 236.57031 459.57617 C 251.95539 459.57617 273.7024 440.06968 285.14258 416.00586 C 285.50126 415.25139 285.71885 414.77952 286.04883 414.08398 C 295.84791 414.17368 304.65157 414.15625 310.70508 414.15625 C 315.28689 414.15625 321.60141 414.16321 328.54688 414.13281 C 328.86915 414.81206 329.08015 415.27062 329.42969 416.00586 C 340.86988 440.06968 362.61493 459.57617 378 459.57617 C 393.38509 459.57617 396.58277 440.06968 385.14258 416.00586 C 384.49261 414.6387 383.80524 413.38177 383.0918 412.20508 C 393.13683 411.30957 401.68282 410.01649 406.73047 408.11523 C 413.43255 405.59094 420.94547 373.89076 427.29492 339.23828 C 433.40291 335.69104 448.63211 327.01731 448.17773 325.61914 C 455.20168 359.82256 454.33796 381.96828 463.90234 409.96875 C 486.94971 422.46495 609.32816 371.5342 618.44922 328.17188 C 617.3054 282.26099 598.85024 245.3966 572.83398 201.92773 C 541.39498 222.90033 513.87536 259.18618 476.20508 323.51172 C 472.52892 311.93113 468.4426 289.88914 463.44531 284.81836 C 456.83898 278.11494 446.39733 287.29024 434.17578 298.24609 C 437.33683 277.90675 439.75878 260.38268 440.95312 251.94336 C 461.4928 235.25904 485.72622 209.59113 496.87695 187.27344 C 466.80794 152.01446 393.63623 128.31658 344.36914 119.11914 C 336.28611 58.624842 335.98874 53.416146 310.70508 0.41601562 z M 237.05078 154.47852 C 237.41401 154.4847 237.77976 154.50059 238.14844 154.52734 C 250.39095 155.41661 263.8565 167.44382 272.06445 184.5332 L 263.55859 188.09375 A 30.70524 18.223434 66.622455 0 0 236.03125 170.03516 A 30.70524 18.223434 66.622455 0 0 230.17969 202.07422 L 221.67773 205.63477 C 213.2872 183.38594 216.6931 161.55577 229.89844 155.84766 C 232.10305 154.89455 234.50817 154.43522 237.05078 154.47852 z M 380.11719 154.47852 C 382.38871 154.52808 384.54203 154.98727 386.53125 155.84766 C 399.73551 161.55702 403.14053 183.38676 394.75 205.63477 L 386.24805 202.07422 A 18.223434 30.70524 23.377545 0 0 380.39844 170.03516 A 18.223434 30.70524 23.377545 0 0 352.86914 188.09375 L 344.36719 184.5332 C 352.78585 167.00465 366.70662 154.84898 379.13672 154.48242 C 379.46592 154.47276 379.79268 154.47144 380.11719 154.47852 z M 308.21484 172.23047 A 51.734585 52.527931 0 0 1 343.45898 186.36328 L 341.59961 190.74414 L 341.7168 190.79297 C 341.6883 190.87071 341.6572 190.94759 341.62891 191.02539 A 27.396843 46.161804 23.377545 0 1 341.71875 190.79492 L 350.1875 194.3418 A 18.223434 30.70524 23.377545 0 0 356.03125 226.4043 A 18.223434 30.70524 23.377545 0 0 383.57031 208.32227 L 392.07812 211.88672 C 389.19248 217.87732 385.59403 223.38141 381.51953 228.00781 C 394.11196 229.05871 406.96414 231.34272 421.00391 237.36719 C 421.00364 237.36715 410.74654 328.81162 398.31055 379.17969 C 397.6553 381.83359 392.12891 386.95422 389.54883 387.85742 C 364.01743 396.79452 311.29012 394.43359 311.07227 394.43359 C 310.85442 394.43359 258.1271 396.79452 232.5957 387.85742 C 230.01562 386.95422 224.48923 381.83359 223.83398 379.17969 C 211.39799 328.81162 201.14285 237.36715 201.14258 237.36719 C 213.23715 232.1774 224.44974 229.76526 235.375 228.52148 C 231.1114 223.79404 227.34503 218.10511 224.34766 211.88672 L 232.85742 208.32227 A 30.70524 18.223434 66.622455 0 0 260.39844 226.4043 A 30.70524 18.223434 66.622455 0 0 266.24023 194.3418 L 274.72461 190.78711 A 46.161804 27.396843 66.622455 0 1 275.57617 193.19531 C 275.31166 192.40848 275.03921 191.62291 274.74805 190.8418 C 274.74128 190.82345 274.73335 190.80545 274.72656 190.78711 L 274.83008 190.74414 L 272.98047 186.38867 A 51.734585 52.527931 0 0 1 308.21484 172.23047 z M 275.57617 193.19531 C 275.74452 193.69609 275.91296 194.1967 276.07031 194.69922 C 276.11098 194.82095 276.1514 194.94262 276.19141 195.06445 A 46.161804 27.396843 66.622455 0 0 275.57617 193.19531 z M 276.19141 195.06445 A 46.161804 27.396843 66.622455 0 1 276.47852 196.06641 C 276.39914 195.79433 276.33463 195.52185 276.25195 195.25 C 276.23183 195.18818 276.2117 195.12625 276.19141 195.06445 z M 276.47852 196.06641 C 276.75264 197.00601 277.02355 197.94627 277.25781 198.88672 C 277.29521 199.02535 277.33067 199.16409 277.36719 199.30273 A 46.161804 27.396843 66.622455 0 0 276.47852 196.06641 z M 277.36719 199.30273 A 46.161804 27.396843 66.622455 0 1 277.78906 201.21875 C 277.67931 200.70036 277.58518 200.18364 277.46289 199.66406 C 277.43181 199.54359 277.39892 199.42321 277.36719 199.30273 z M 277.78906 201.21875 C 277.91359 201.80689 278.05192 202.39649 278.16016 202.98242 C 278.20213 203.1878 278.24127 203.39256 278.28125 203.59766 A 46.161804 27.396843 66.622455 0 0 277.78906 201.21875 z M 278.28125 203.59766 A 46.161804 27.396843 66.622455 0 1 278.66797 206.12305 C 278.57793 205.45016 278.49138 204.778 278.37891 204.09961 C 278.34763 203.93255 278.31385 203.76492 278.28125 203.59766 z M 278.66797 206.12305 C 278.70682 206.41339 278.75832 206.70693 278.79297 206.99609 C 278.83322 207.28226 278.86808 207.56652 278.9043 207.85156 A 46.161804 27.396843 66.622455 0 0 278.66797 206.12305 z M 278.9043 207.85156 A 46.161804 27.396843 66.622455 0 1 279.17188 211.05859 C 279.16943 211.02455 279.16852 210.9911 279.16602 210.95703 C 279.12295 210.13352 279.06172 209.30243 278.98242 208.46484 C 278.95856 208.26118 278.93025 208.05584 278.9043 207.85156 z M 279.17188 211.05859 C 279.19343 211.35849 279.20778 211.65516 279.22461 211.95312 A 46.161804 27.396843 66.622455 0 0 279.17188 211.05859 z M 279.22461 211.95312 A 46.161804 27.396843 66.622455 0 1 279.26562 215.72656 C 279.29404 214.74226 279.29768 213.74412 279.26953 212.73047 C 279.25848 212.47309 279.23923 212.21204 279.22461 211.95312 z M 178.61719 175.2793 C 181.32457 175.27957 183.51926 177.47426 183.51953 180.18164 C 183.51926 182.88902 181.32457 185.08371 178.61719 185.08398 C 175.90981 185.08372 173.71511 182.88902 173.71484 180.18164 C 173.71511 177.47426 175.90981 175.27956 178.61719 175.2793 z M 438.61719 175.2793 C 441.32457 175.27957 443.51926 177.47426 443.51953 180.18164 C 443.51926 182.88902 441.32457 185.08371 438.61719 185.08398 C 435.90981 185.08372 433.71511 182.88902 433.71484 180.18164 C 433.71511 177.47426 435.90981 175.27956 438.61719 175.2793 z M 341.34961 191.78711 C 341.06485 192.57153 340.79106 193.35868 340.5332 194.14844 C 340.40453 194.55541 340.28343 194.96337 340.16211 195.37109 A 27.396843 46.161804 23.377545 0 1 341.34961 191.78711 z M 340.01758 195.85156 C 339.76056 196.70352 339.51739 197.5567 339.29297 198.41016 C 339.17946 198.85715 339.077 199.30343 338.97266 199.75 A 27.396843 46.161804 23.377545 0 1 340.01758 195.85156 z M 338.74219 200.74219 C 338.60169 201.35678 338.46664 201.97125 338.34375 202.58398 C 338.23492 203.1519 338.14615 203.71622 338.05273 204.28125 A 27.396843 46.161804 23.377545 0 1 338.74219 200.74219 z M 310.54883 200.79883 C 298.14354 201.01399 285.90431 206.83289 279.23438 217.34766 A 46.161804 27.396843 66.622455 0 0 279.25195 216.65039 C 278.7272 228.53376 274.06137 237.32313 266.53125 240.5918 C 257.52131 244.46047 245.70186 239.9265 235.53906 228.70312 C 229.73105 240.31288 226.70305 253.15027 226.70117 266.17188 C 226.70096 311.88108 263.196 348.93576 308.21484 348.93555 C 321.66821 348.91015 334.90623 345.50416 346.74805 339.02148 L 382.78906 387.48438 L 396.16406 377.53906 L 360.49023 329.57031 C 378.99167 313.86846 389.69656 290.65512 389.72656 266.17188 C 389.69656 253.16726 386.64869 240.35285 380.83008 228.76758 C 370.67956 239.94434 358.88954 244.4513 349.89844 240.5918 C 340.94382 236.68345 336.16586 225.02711 337.33594 210.01758 A 27.396843 46.161804 23.377545 0 0 337.25195 210.89453 C 329.94678 203.85389 320.19739 200.63148 310.54883 200.79883 z M 337.84375 205.54102 C 337.78037 205.94465 337.71749 206.34833 337.66211 206.75 C 337.59671 207.2613 337.55618 207.76432 337.50391 208.27148 A 27.396843 46.161804 23.377545 0 1 337.84375 205.54102 z M 178.61719 213.2793 C 181.32457 213.27957 183.51926 215.47426 183.51953 218.18164 C 183.51926 220.88902 181.32457 223.08371 178.61719 223.08398 C 175.90981 223.08372 173.71511 220.88902 173.71484 218.18164 C 173.71511 215.47426 175.90981 213.27956 178.61719 213.2793 z M 438.61719 213.2793 C 441.32457 213.27957 443.51926 215.47426 443.51953 218.18164 C 443.51926 220.88902 441.32457 223.08371 438.61719 223.08398 C 435.90981 223.08372 433.71511 220.88902 433.71484 218.18164 C 433.71511 215.47426 435.90981 213.27956 438.61719 213.2793 z M 280.78516 244.86133 C 299.12299 252.75667 318.65028 255.00199 340.78516 244.86133 C 336.4936 260.10659 313.94371 262.95694 310.78516 262.18359 C 307.62661 261.41024 290.13131 263.28758 280.78516 244.86133 z M 42.357422 268.24805 C 51.870694 268.14935 62.153187 272.90744 70.455078 281.25 C 86.000308 296.87225 90.33497 320.39851 80.136719 333.79688 C 69.938655 347.195 49.070037 345.39189 33.525391 329.76953 C 17.9813 314.14772 13.646757 290.62297 23.84375 277.22461 C 28.196676 271.50573 34.753717 268.32648 42.357422 268.24805 z M 578.70117 268.24805 C 586.30568 268.32595 592.86349 271.50524 597.2168 277.22461 C 607.41379 290.62297 603.07925 314.14772 587.53516 329.76953 C 571.99051 345.39189 551.12189 347.19498 540.92383 333.79688 C 530.72558 320.39851 535.06024 296.87225 550.60547 281.25 C 558.90677 272.90805 569.18841 268.14997 578.70117 268.24805 z M 53.207031 289.44336 A 18.802192 13.812586 56.373604 0 0 44.673828 293.64062 A 18.802192 13.812586 56.373604 0 0 49.136719 318.21094 A 18.802192 13.812586 56.373604 0 0 70.617188 320.09375 A 18.802192 13.812586 56.373604 0 0 66.15625 295.52344 A 18.802192 13.812586 56.373604 0 0 53.207031 289.44336 z "
       style="color:#000000;clip-rule:nonzero;display:inline;overflow:visible;visibility:visible;opacity:1;isolation:auto;mix-blend-mode:normal;color-interpolation:sRGB;color-interpolation-filters:linearRGB;solid-color:#000000;solid-opacity:1;fill:#ffffff;fill-opacity:1;fill-rule:nonzero;stroke:none;stroke-width:1;stroke-linecap:square;stroke-linejoin:miter;stroke-miterlimit:4;stroke-dasharray:none;stroke-dashoffset:0;stroke-opacity:1;color-rendering:auto;image-rendering:auto;shape-rendering:auto;text-rendering:auto;enable-background:accumulate" />
  </g>
</svg>
