<?xml version="1.0" encoding="UTF-8" standalone="no"?>
<svg
   xmlns:dc="http://purl.org/dc/elements/1.1/"
   xmlns:cc="http://creativecommons.org/ns#"
   xmlns:rdf="http://www.w3.org/1999/02/22-rdf-syntax-ns#"
   xmlns:svg="http://www.w3.org/2000/svg"
   xmlns="http://www.w3.org/2000/svg"
   version="1.1"
   id="svg2"
   viewBox="0 0 744.09448819 1052.3622047"
   height="297mm"
   width="210mm">
  <defs
     id="defs4" />
  <metadata
     id="metadata7">
    <rdf:RDF>
      <cc:Work
         rdf:about="">
        <dc:format>image/svg+xml</dc:format>
        <dc:type
           rdf:resource="http://purl.org/dc/dcmitype/StillImage" />
        <dc:title></dc:title>
      </cc:Work>
    </rdf:RDF>
  </metadata>
  <g
     id="layer1">
    <path
       id="path4147-9-1"
       d="M 298.71484 343.72461 C 289.70466 343.03455 277.99219 402.97642 277.99219 430.69922 C 252.88264 436.14529 238.22701 449.90361 234.46289 468.35156 L 198.80078 403.9668 L 190.16992 429.47852 L 132.5 375.21875 L 191.34766 492.36133 L 206.64844 442.77344 L 233.52344 480.04102 C 233.61225 482.82744 233.89973 485.68538 234.4082 488.61328 C 239.34339 517.03094 260.30245 525.77881 275.35156 529.28711 C 261.49741 544.89169 269.62485 549.3685 287.0625 551.02734 C 290.64395 551.36804 296.64825 588.9668 298.71484 588.9668 C 301.04901 588.9668 305.79848 551.45169 309.89844 551.00391 C 327.1024 549.12494 335.5619 544.47673 322.07617 529.28711 C 337.58787 527.27175 360.11565 512.9516 363.01953 488.61328 C 363.35695 485.78528 363.48521 482.91193 363.41016 480.0332 L 390.2793 442.77344 L 405.58008 492.36133 L 464.42773 375.21875 L 406.75781 429.47852 L 398.12695 403.9668 L 362.06055 469.08398 C 358.03134 451.1702 344.87118 435.03974 319.43555 430.69922 C 319.42303 402.97673 307.72504 344.41468 298.71484 343.72461 z M 298.69922 351.22266 C 305.71326 351.87476 314.8184 407.21663 314.82812 433.41406 C 341.74108 438.98917 360.45949 465.14314 357.79102 488.14258 C 355.12254 511.14202 328.95994 524.67363 316.88477 526.57812 C 329.88467 544.35293 308.1408 547.53906 298.69922 547.53906 C 289.25764 547.53906 267.51182 544.35294 280.51172 526.57812 C 268.79665 523.26283 244.1406 514.99694 239.60547 488.14258 C 235.07035 461.28822 256.38735 440.3073 282.56836 433.41406 C 282.56836 407.21633 291.68518 350.57055 298.69922 351.22266 z M 149.46484 397.89844 L 176.93555 427.79883 L 169.97656 436.17188 L 149.46484 397.89844 z M 447.46289 397.89844 L 426.95117 436.17188 L 419.99219 427.79883 L 447.46289 397.89844 z M 201.92969 420.63281 L 233.92773 471.57227 C 233.84251 472.21572 233.76321 472.86201 233.70312 473.51562 L 207.50781 436.50195 L 201.92969 420.63281 z M 394.99805 420.63281 L 389.41992 436.50195 L 362.92773 473.9375 C 362.84669 473.32821 362.76129 472.72019 362.66016 472.11328 L 394.99805 420.63281 z M 197.91406 425.65625 L 204.61914 437.21289 L 191.38086 476.11133 L 174.33398 444.30078 L 180.70898 431.9043 L 192.40625 444.63672 L 197.91406 425.65625 z M 399.01367 425.65625 L 404.52148 444.63672 L 416.21875 431.9043 L 422.59375 444.30078 L 405.54688 476.11133 L 392.30859 437.21289 L 399.01367 425.65625 z M 271.45703 443.80664 A 14.81835 30.264963 0 0 0 256.63867 474.07227 A 14.81835 30.264963 0 0 0 256.64062 474.21289 L 262.03711 474.21289 A 9.7838573 20.940166 0 0 1 262.03516 474.07227 A 9.7838573 20.940166 0 0 1 271.82031 453.13086 A 9.7838573 20.940166 0 0 1 281.60352 474.07227 A 9.7838573 20.940166 0 0 1 281.59961 474.21289 L 286.27148 474.21289 A 14.81835 30.264963 0 0 0 286.27539 474.07227 A 14.81835 30.264963 0 0 0 271.45703 443.80664 z M 325.45703 443.80664 A 14.81835 30.264963 0 0 0 310.63867 474.07227 A 14.81835 30.264963 0 0 0 310.64062 474.21289 L 316.03711 474.21289 A 9.7838573 20.940166 0 0 1 316.03516 474.07227 A 9.7838573 20.940166 0 0 1 325.82031 453.13086 A 9.7838573 20.940166 0 0 1 335.60352 474.07227 A 9.7838573 20.940166 0 0 1 335.59961 474.21289 L 340.27148 474.21289 A 14.81835 30.264963 0 0 0 340.27539 474.07227 A 14.81835 30.264963 0 0 0 325.45703 443.80664 z M 256.65234 474.91602 A 14.81835 30.264963 0 0 0 271.45703 504.33594 A 14.81835 30.264963 0 0 0 286.25586 474.91602 L 281.58398 474.91602 A 9.7838573 20.940166 0 0 1 271.82031 495.01172 A 9.7838573 20.940166 0 0 1 262.04883 474.91602 L 256.65234 474.91602 z M 310.65234 474.91602 A 14.81835 30.264963 0 0 0 325.45703 504.33594 A 14.81835 30.264963 0 0 0 340.25586 474.91602 L 335.58398 474.91602 A 9.7838573 20.940166 0 0 1 325.82031 495.01172 A 9.7838573 20.940166 0 0 1 316.04883 474.91602 L 310.65234 474.91602 z M 292.48242 503.21875 C 291.96265 508.89432 289.10818 521.08594 298.46484 521.08594 C 307.82149 521.08594 304.96508 508.89432 304.44531 503.21875 C 302.56135 503.44165 300.00824 503.72266 298.46289 503.72266 C 296.91754 503.72266 294.36638 503.44165 292.48242 503.21875 z "
       style="fill:#555555;fill-opacity:1;fill-rule:evenodd;stroke:none;stroke-width:1px;stroke-linecap:butt;stroke-linejoin:miter;stroke-opacity:1" />
  </g>
</svg>
